<svg id="round-event_available-24px" xmlns="http://www.w3.org/2000/svg" width="18" height="18" viewBox="0 0 18 18">
  <path id="Path_3" data-name="Path 3" d="M0,0H18V18H0Z" fill="none"/>
  <path id="Path_4" data-name="Path 4" d="M12.75,8.148a.566.566,0,0,0-.8,0L8.693,11.41,7.5,10.217a.562.562,0,1,0-.8.8L8.16,12.468a.747.747,0,0,0,1.057,0l3.525-3.525a.559.559,0,0,0,.007-.8ZM15,2.5h-.75V1.75a.75.75,0,0,0-1.5,0V2.5h-6V1.75a.75.75,0,0,0-1.5,0V2.5H4.5A1.493,1.493,0,0,0,3.007,4L3,14.5A1.5,1.5,0,0,0,4.5,16H15a1.5,1.5,0,0,0,1.5-1.5V4A1.5,1.5,0,0,0,15,2.5Zm-.75,12h-9a.752.752,0,0,1-.75-.75V6.25H15v7.5A.752.752,0,0,1,14.25,14.5Z" transform="translate(-0.75 -0.25)" fill="#b4b2b2"/>
</svg>
