<svg id="round-phone-24px" xmlns="http://www.w3.org/2000/svg" width="17" height="17" viewBox="0 0 17 17">
  <path id="Path_1" data-name="Path 1" d="M0,0H17V17H0Z" fill="none"/>
  <path id="Path_2" data-name="Path 2" d="M14.5,11.687l-1.8-.205a1.41,1.41,0,0,0-1.162.4l-1.3,1.3A10.657,10.657,0,0,1,5.572,8.521l1.31-1.31a1.41,1.41,0,0,0,.4-1.162L7.081,4.264A1.418,1.418,0,0,0,5.671,3.01H4.446A1.406,1.406,0,0,0,3.029,4.476,12.036,12.036,0,0,0,14.284,15.732a1.406,1.406,0,0,0,1.466-1.417V13.09A1.4,1.4,0,0,0,14.5,11.687Z" transform="translate(-0.883 -0.878)" fill="#b4b2b2"/>
</svg>
