<svg xmlns="http://www.w3.org/2000/svg" xmlns:xlink="http://www.w3.org/1999/xlink" width="307" height="253" viewBox="0 0 307 253">
  <defs>
    <clipPath id="clip-path">
      <rect width="307" height="253" fill="none"/>
    </clipPath>
    <filter id="Union_1" x="0" y="0" width="307" height="253" filterUnits="userSpaceOnUse">
      <feOffset dy="3" input="SourceAlpha"/>
      <feGaussianBlur stdDeviation="3" result="blur"/>
      <feFlood flood-opacity="0.161"/>
      <feComposite operator="in" in2="blur"/>
      <feComposite in="SourceGraphic"/>
    </filter>
  </defs>
  <g id="Repeat_Grid_1" data-name="Repeat Grid 1" clip-path="url(#clip-path)">
    <g transform="translate(-931 -415)">
      <g transform="matrix(1, 0, 0, 1, 931, 415)" filter="url(#Union_1)">
        <g id="Union_1-2" data-name="Union 1" transform="translate(1361 913)" fill="#fff">
          <path d="M -1063.499877929688 -672.5003051757813 L -1351.499877929688 -672.5003051757813 L -1351.499877929688 -888.500244140625 L -1335.375122070313 -888.500244140625 L -1335.048095703125 -888.500244140625 L -1334.917114257813 -888.7998046875 L -1327.5 -905.7528076171875 L -1320.0830078125 -888.7998046875 L -1319.951904296875 -888.500244140625 L -1319.624877929688 -888.500244140625 L -1063.499877929688 -888.500244140625 L -1063.499877929688 -672.5003051757813 Z" stroke="none"/>
          <path d="M -1063.999877929688 -673.0003051757813 L -1063.999877929688 -888.000244140625 L -1319.624877929688 -888.000244140625 L -1320.278930664063 -888.000244140625 L -1320.541015625 -888.5994262695313 L -1327.5 -904.50537109375 L -1334.458984375 -888.5994262695313 L -1334.721069335938 -888.000244140625 L -1335.375122070313 -888.000244140625 L -1350.999877929688 -888.000244140625 L -1350.999877929688 -673.0003051757813 L -1063.999877929688 -673.0003051757813 M -1062.999877929688 -672.0003051757813 L -1351.999877929688 -672.0003051757813 L -1351.999877929688 -889.000244140625 L -1335.375122070313 -889.000244140625 L -1327.5 -907.000244140625 L -1319.624877929688 -889.000244140625 L -1062.999877929688 -889.000244140625 L -1062.999877929688 -672.0003051757813 Z" stroke="none" fill="#b4b2b2"/>
        </g>
      </g>
    </g>
  </g>
</svg>
