<svg id="round-event_busy-24px" xmlns="http://www.w3.org/2000/svg" width="18" height="18" viewBox="0 0 18 18">
  <path id="Path_5" data-name="Path 5" d="M0,0H18V18H0Z" fill="none"/>
  <path id="Path_6" data-name="Path 6" d="M8.13,12.6,9.563,11.17,10.995,12.6a.562.562,0,0,0,.795-.795l-1.432-1.432L11.79,8.943a.562.562,0,0,0-.795-.795L9.563,9.58,8.13,8.148a.562.562,0,1,0-.795.795l1.432,1.432L7.335,11.807a.562.562,0,0,0,.795.795ZM15,2.5h-.75V1.75a.75.75,0,0,0-1.5,0V2.5h-6V1.75a.75.75,0,0,0-1.5,0V2.5H4.5A1.493,1.493,0,0,0,3.007,4L3,14.5A1.5,1.5,0,0,0,4.5,16H15a1.5,1.5,0,0,0,1.5-1.5V4A1.5,1.5,0,0,0,15,2.5Zm-.75,12h-9a.752.752,0,0,1-.75-.75V6.25H15v7.5A.752.752,0,0,1,14.25,14.5Z" transform="translate(-0.75 -0.25)" fill="#b4b2b2"/>
</svg>
