<svg xmlns="http://www.w3.org/2000/svg" xmlns:xlink="http://www.w3.org/1999/xlink" width="307" height="253" viewBox="0 0 307 253">
  <defs>
    <filter id="Union_1" x="0" y="0" width="307" height="253" filterUnits="userSpaceOnUse">
      <feOffset dy="3" input="SourceAlpha"/>
      <feGaussianBlur stdDeviation="3" result="blur"/>
      <feFlood flood-opacity="0.161"/>
      <feComposite operator="in" in2="blur"/>
      <feComposite in="SourceGraphic"/>
    </filter>
  </defs>
  <g transform="matrix(1, 0, 0, 1, 0, 0)" filter="url(#Union_1)">
    <g id="Union_1-2" data-name="Union 1" transform="translate(1361 913)" fill="#fff">
      <path d="M -1063.499877929688 -672.5003051757813 L -1351.499877929688 -672.5003051757813 L -1351.499877929688 -888.500244140625 L -1187.374877929688 -888.500244140625 L -1187.0478515625 -888.500244140625 L -1186.916748046875 -888.7998657226563 L -1179.50048828125 -905.7528076171875 L -1172.083251953125 -888.7998046875 L -1171.952270507813 -888.500244140625 L -1171.625244140625 -888.500244140625 L -1063.499877929688 -888.500244140625 L -1063.499877929688 -672.5003051757813 Z" stroke="none"/>
      <path d="M -1063.999877929688 -673.0003051757813 L -1063.999877929688 -888.000244140625 L -1171.625244140625 -888.000244140625 L -1172.279174804688 -888.000244140625 L -1172.541381835938 -888.5994262695313 L -1179.50048828125 -904.5053100585938 L -1186.458740234375 -888.5994262695313 L -1186.720825195313 -888.000244140625 L -1187.374877929688 -888.000244140625 L -1350.999877929688 -888.000244140625 L -1350.999877929688 -673.0003051757813 L -1063.999877929688 -673.0003051757813 M -1062.999877929688 -672.0003051757813 L -1351.999877929688 -672.0003051757813 L -1351.999877929688 -889.000244140625 L -1187.374877929688 -889.000244140625 L -1179.50048828125 -907.000244140625 L -1171.625244140625 -889.000244140625 L -1062.999877929688 -889.000244140625 L -1062.999877929688 -672.0003051757813 Z" stroke="none" fill="#b4b2b2"/>
    </g>
  </g>
</svg>
